<svg width="214" height="48" viewBox="0 0 214 48" fill="none" xmlns="http://www.w3.org/2000/svg">
<rect width="213.454" height="47.1105" rx="10" fill="#4C47DD"/>
<path d="M13.7175 36.1767C12.9405 36.1767 12.3105 35.5468 12.3105 34.7697V12.171C12.3105 11.394 12.9405 10.7641 13.7175 10.7641H21.9051C27.2395 10.7641 31.759 13.4684 31.759 19.6918C31.796 25.9153 27.2766 28.7678 21.9051 28.7678H17.3486V34.7697C17.3486 35.5468 16.7187 36.1767 15.9417 36.1767H13.7175ZM17.3486 24.4706H21.6087C25.0168 24.4706 26.9061 23.5074 26.9061 19.6918C26.9061 15.9874 25.0168 15.0613 21.6087 15.0613H17.3486V24.4706Z" fill="white"/>
<path d="M46.3347 36.7694C39.0369 36.7694 34.11 31.5461 34.11 23.4704C34.11 15.3947 39.0369 10.1714 46.3347 10.1714C53.5954 10.1714 58.5223 15.3947 58.5223 23.4704C58.5594 31.5461 53.6325 36.7694 46.3347 36.7694ZM46.3347 32.0647C51.0023 32.0647 53.4102 29.1753 53.4102 23.3963C53.4102 17.6914 51.0023 14.9131 46.3347 14.9131C41.63 14.9131 39.1851 17.6914 39.1851 23.3963C39.1851 29.1753 41.63 32.0647 46.3347 32.0647Z" fill="white"/>
<path d="M63.6026 36.1767C62.8256 36.1767 62.1957 35.5468 62.1957 34.7697V12.171C62.1957 11.394 62.8256 10.7641 63.6026 10.7641H72.5311C77.8655 10.7641 82.3479 13.3202 82.385 19.2103C82.422 23.4333 80.2734 26.0265 77.0876 27.1378L81.7326 35.1194C82.0055 35.5884 81.6672 36.1767 81.1246 36.1767H77.747C77.2469 36.1767 76.7843 35.9112 76.5321 35.4793L72.0495 27.8046H67.2337V34.7697C67.2337 35.5468 66.6038 36.1767 65.8268 36.1767H63.6026ZM67.2337 23.6556H72.2347C75.6428 23.6556 77.5321 22.8036 77.5321 19.2844C77.5321 15.9133 75.6428 15.0613 72.2347 15.0613H67.2337V23.6556Z" fill="white"/>
<path d="M94.1153 36.1767C93.3383 36.1767 92.7084 35.5468 92.7084 34.7697V15.0983H86.2619C85.4848 15.0983 84.8549 14.4684 84.8549 13.6914V12.171C84.8549 11.394 85.4848 10.7641 86.2619 10.7641H104.156C104.933 10.7641 105.563 11.394 105.563 12.171V13.6914C105.563 14.4684 104.933 15.0983 104.156 15.0983H97.7464V34.7697C97.7464 35.5468 97.1165 36.1767 96.3395 36.1767H94.1153Z" fill="white"/>
<path d="M110.325 36.1767C109.548 36.1767 108.918 35.5468 108.918 34.7697V12.171C108.918 11.394 109.548 10.7641 110.325 10.7641H119.254C124.588 10.7641 129.07 13.3202 129.108 19.2103C129.145 23.4333 126.996 26.0265 123.81 27.1378L128.455 35.1194C128.728 35.5884 128.39 36.1767 127.847 36.1767H124.47C123.969 36.1767 123.507 35.9112 123.255 35.4793L118.772 27.8046H113.956V34.7697C113.956 35.5468 113.326 36.1767 112.549 36.1767H110.325ZM113.956 23.6556H118.957C122.365 23.6556 124.255 22.8036 124.255 19.2844C124.255 15.9133 122.365 15.0613 118.957 15.0613H113.956V23.6556Z" fill="white"/>
<path d="M151.118 36.1767C150.51 36.1767 149.971 35.7866 149.782 35.2094L148.248 30.5459H138.097L136.597 35.2014C136.409 35.7827 135.868 36.1767 135.257 36.1767H131.968C131.486 36.1767 131.147 35.7025 131.302 35.2461L139.328 11.7168C139.523 11.1471 140.058 10.7641 140.66 10.7641H145.685C146.287 10.7641 146.822 11.1471 147.017 11.7168L155.043 35.2461C155.198 35.7025 154.859 36.1767 154.377 36.1767H151.118ZM139.468 26.3969H146.914L143.172 14.9872L139.468 26.3969Z" fill="white"/>
<path d="M159.53 36.1767C158.753 36.1767 158.123 35.5468 158.123 34.7697V12.171C158.123 11.394 158.753 10.7641 159.53 10.7641H167.458C174.979 10.7641 179.461 14.9872 179.461 23.4704C179.498 31.9536 175.016 36.1767 167.458 36.1767H159.53ZM163.161 31.8795H165.866C171.793 31.8795 174.423 30.5459 174.423 23.5074C174.423 16.6171 171.793 15.0613 165.866 15.0613H163.161V31.8795Z" fill="white"/>
<path d="M184.541 36.1767C183.764 36.1767 183.134 35.5468 183.134 34.7697V12.171C183.134 11.394 183.764 10.7641 184.541 10.7641H200.286C201.063 10.7641 201.693 11.394 201.693 12.171V13.8025C201.693 14.5795 201.063 15.2095 200.286 15.2095H188.172V21.5441H198.36C199.137 21.5441 199.767 22.174 199.767 22.951V24.0639C199.767 24.8409 199.137 25.4708 198.36 25.4708H188.172V31.7313H200.286C201.063 31.7313 201.693 32.3613 201.693 33.1383V34.7697C201.693 35.5468 201.063 36.1767 200.286 36.1767H184.541Z" fill="white"/>
</svg>
